<svg version="1.1" id="Layer_1" xmlns="http://www.w3.org/2000/svg" xmlns:xlink="http://www.w3.org/1999/xlink" x="0px" y="0px"
	 width="100%" viewBox="0 0 188 64" enable-background="new 0 0 188 64" xml:space="preserve">
<path fill="#FFFFFF" opacity="1.000000" stroke="none" 
	d="
M43.000000,65.000000 
	C41.611111,65.000000 40.222221,65.000000 38.507523,64.660934 
	C43.138920,56.434589 48.096130,48.547306 53.468170,40.000000 
	C50.310818,40.000000 48.145966,40.303596 46.097145,39.944744 
	C39.133530,38.725067 34.493122,40.907616 31.532713,47.713642 
	C28.919579,53.721272 25.219910,59.256294 22.000000,65.000000 
	C20.611111,65.000000 19.222221,65.000000 17.507801,64.658638 
	C22.074570,56.382267 26.966873,48.447254 32.174995,40.000000 
	C28.273529,40.000000 25.384642,40.396648 22.648449,39.918854 
	C16.630968,38.868092 13.538818,41.691017 10.903361,46.747417 
	C8.114306,52.098507 4.342535,56.937389 1.000000,62.000000 
	C1.000000,41.786594 1.000000,21.573193 1.000000,1.000000 
	C5.678751,1.000000 10.366713,1.000000 15.527336,1.468642 
	C16.000000,9.202435 16.000000,16.467588 16.000000,23.673756 
	C19.327524,23.673756 22.057041,23.673756 25.239063,23.673756 
	C25.239063,20.610653 25.239063,17.874128 25.239063,14.999951 
	C26.863115,14.999951 28.021698,14.999950 29.180281,14.999950 
	C30.307497,14.999950 31.434715,14.999951 32.579041,14.999951 
	C32.579041,13.076286 32.579041,11.579292 32.579041,10.104611 
	C24.218380,9.861126 24.218380,9.861126 24.588102,5.899804 
	C28.642733,5.899804 32.742775,5.899804 37.000000,5.899804 
	C37.000000,3.985408 37.000000,2.492704 37.000000,1.000000 
	C37.444447,1.000000 37.888889,1.000000 38.666668,1.468302 
	C39.000008,6.592328 38.983307,11.248128 39.004639,15.903755 
	C39.026737,20.727568 41.955677,23.789642 46.799049,23.983324 
	C49.123211,24.076265 51.454205,24.010941 53.781994,23.997728 
	C59.140366,23.967314 61.967323,21.217218 61.994431,15.964815 
	C62.020180,10.976666 61.999989,5.988281 62.000000,1.000000 
	C63.066669,1.000000 64.133339,1.000000 65.600006,1.468641 
	C66.000000,9.206568 66.000000,16.475853 66.000000,23.674421 
	C68.645149,23.674421 70.705345,23.674421 73.023422,23.674421 
	C73.023422,19.783556 73.023422,16.214703 73.023422,12.645849 
	C73.216187,12.607477 73.408943,12.569105 73.601707,12.530733 
	C74.881714,16.266747 76.161713,20.002762 77.429337,23.702625 
	C88.401077,26.352819 84.776833,15.553997 89.086060,11.499084 
	C89.086060,15.668658 89.086060,19.678286 89.086060,23.697552 
	C92.267601,23.697552 94.991798,23.697552 98.000000,23.697552 
	C98.000000,15.932177 98.000000,8.466088 98.000000,1.000000 
	C99.066673,1.000000 100.133339,1.000000 101.600006,1.468642 
	C102.000000,9.196057 102.000000,16.454832 102.000000,23.685238 
	C104.961380,23.685238 107.351410,23.685238 110.000000,23.685238 
	C110.000000,15.915490 110.000000,8.457746 110.000000,1.000000 
	C111.066673,1.000000 112.133339,1.000000 113.600006,1.468642 
	C114.000000,9.173121 114.000000,16.408960 114.000000,23.999939 
	C115.819916,23.999939 117.110954,24.000170 118.401993,23.999899 
	C122.213905,23.999096 126.049988,24.266392 129.831314,23.925882 
	C134.083084,23.543013 137.482925,21.583218 139.028809,17.205704 
	C141.839447,9.246819 139.983002,5.443917 131.000000,1.000000 
	C134.361282,1.000000 137.722580,1.000000 141.541931,1.468642 
	C142.000000,9.192270 142.000000,16.447258 142.000000,23.709442 
	C149.654144,23.709442 156.720398,23.709442 164.056442,23.709442 
	C163.925110,22.000772 163.818100,20.608438 163.690460,18.947935 
	C159.395584,18.947935 155.448837,18.947935 151.112991,18.947935 
	C151.112991,17.722225 150.961929,16.007246 151.135422,15.973760 
	C154.259644,15.370741 157.423080,14.970818 160.762054,14.501585 
	C160.762054,13.173607 160.762054,11.781833 160.762054,10.751424 
	C157.866486,8.318353 152.209091,12.824535 150.637802,5.893870 
	C155.652969,5.893870 159.750504,5.893870 164.000000,5.893870 
	C164.000000,3.983800 164.000000,2.491900 164.000000,1.000000 
	C164.000000,1.000000 164.500000,1.000000 164.750000,1.444849 
	C165.000000,3.490868 165.000000,5.092038 165.000000,6.947284 
	C168.473221,6.947284 171.418625,6.947284 175.967422,6.947284 
	C172.944061,10.217731 170.522552,12.368561 168.699402,14.943117 
	C166.931137,17.440170 165.777466,20.372452 163.989944,23.814335 
	C172.935425,23.814335 180.220428,23.814335 187.607391,23.814335 
	C187.607391,22.122131 187.607391,20.624273 187.607391,18.801804 
	C183.994415,18.801804 180.762772,18.801804 176.899521,18.801804 
	C179.671066,15.583643 182.355911,13.103174 184.222305,10.112013 
	C185.939285,7.360288 186.775681,4.059121 188.000000,0.999999 
	C188.333344,2.329566 188.952911,3.658243 188.957047,4.988833 
	C189.019073,24.943445 189.000000,44.898308 189.000000,65.000000 
	C146.312546,65.000000 103.624931,65.000000 60.472713,64.631805 
	C64.704605,56.342358 69.401093,48.421108 74.393951,40.000000 
	C71.557030,40.000000 69.530632,40.258297 67.592751,39.953609 
	C60.599556,38.854095 55.632851,40.775352 52.560390,47.767197 
	C49.928921,53.755497 46.227955,59.273819 43.000000,65.000000 
M171.187225,63.380787 
	C171.187225,63.380787 171.320465,63.399899 171.686584,63.623665 
	C172.120453,63.699848 172.554321,63.776035 173.442810,63.775959 
	C173.746689,63.599888 173.872696,63.338127 173.889328,62.296730 
	C173.913300,61.832439 173.937271,61.368153 174.361481,60.775181 
	C174.446167,60.664284 174.620026,60.475689 174.601639,60.454567 
	C174.428391,60.255730 174.222351,60.085468 173.589890,59.605804 
	C173.151230,59.315727 172.712555,59.025650 172.599030,58.216419 
	C172.775497,57.228558 172.951981,56.240696 173.520050,55.603909 
	C173.880524,55.850163 174.240997,56.096416 174.601456,56.342667 
	C174.747070,55.639164 175.123932,54.866749 174.943283,54.260471 
	C174.849258,53.944973 173.771423,53.922630 172.617050,53.366112 
	C171.749237,53.315739 170.881439,53.265366 169.261383,53.046638 
	C168.494751,53.072948 167.728134,53.099258 166.301407,53.039158 
	C165.861359,53.079510 165.421310,53.119865 164.317978,53.037807 
	C163.872681,53.081318 163.427399,53.124828 162.320770,53.037289 
	C161.875854,53.079811 161.430939,53.122337 160.320908,53.033173 
	C159.874191,53.080437 159.427475,53.127701 158.187073,53.035198 
	C157.117783,53.078251 156.048508,53.121307 154.250839,53.032188 
	C153.489578,53.653717 152.728317,54.275249 151.168961,54.979095 
	C149.243622,54.319614 147.321335,53.096573 145.392502,53.086201 
	C121.107239,52.955601 96.821007,52.987133 72.535156,53.039494 
	C71.369408,53.042007 69.671631,53.244148 69.133308,54.001423 
	C66.952469,57.069286 65.128380,60.390770 62.941463,64.000282 
	C89.993027,64.000282 116.274445,64.063759 142.554672,63.916653 
	C145.695404,63.899071 148.829712,62.735519 152.010956,62.839951 
	C153.000336,63.171848 153.989716,63.503746 155.770599,63.989799 
	C156.840683,63.934875 157.910782,63.879955 159.642929,63.971123 
	C160.090591,63.925797 160.538239,63.880470 161.646500,63.969898 
	C162.091675,63.923820 162.536835,63.877743 163.643448,63.963600 
	C164.089355,63.922329 164.535263,63.881058 165.721252,63.964188 
	C166.467453,63.910244 167.213654,63.856297 168.628052,63.931976 
	C169.080322,63.906708 169.532608,63.881439 170.475861,63.871758 
	C170.847580,63.822208 171.075226,63.614697 171.187225,63.380787 
M178.633804,50.951260 
	C179.079697,50.933208 179.525574,50.915157 180.563187,50.618210 
	C181.697815,48.744617 182.832428,46.871025 184.549500,44.603180 
	C185.574051,42.541878 187.850174,40.040237 182.206482,40.031193 
	C181.461487,40.055130 180.716476,40.079063 179.304153,40.039642 
	C178.858994,40.071247 178.413818,40.102852 177.303177,40.046181 
	C176.858749,40.085876 176.414307,40.125568 175.220490,40.044735 
	C174.464722,40.079453 173.708969,40.114170 172.492310,40.173588 
	C172.177933,40.345577 172.055954,40.607277 172.008682,41.594273 
	C171.998688,42.024120 171.988678,42.453972 171.293518,42.733414 
	C168.575317,41.907253 166.244156,37.247105 162.292908,41.743881 
	C160.858109,41.218056 159.423325,40.692234 157.194748,40.032234 
	C156.126068,40.077339 155.057373,40.122444 153.196091,40.031326 
	C152.128052,40.075989 151.060013,40.120651 149.199127,40.026722 
	C148.130936,40.072765 147.062744,40.118805 145.250488,40.025826 
	C144.498383,40.072834 143.746262,40.119843 142.201645,40.025269 
	C141.132553,40.072311 140.063477,40.119358 138.202164,40.024124 
	C137.133331,40.071457 136.064514,40.118786 134.170639,40.022652 
	C132.778992,40.070240 131.387360,40.117825 129.146774,40.022385 
	C127.429863,40.070572 125.712944,40.118755 123.081902,40.022942 
	C119.053703,40.070728 115.025505,40.118519 110.070343,40.021275 
	C100.267288,40.014141 90.464073,39.978825 80.661400,40.036469 
	C79.470634,40.043472 77.715370,40.152306 77.192474,40.896252 
	C75.001923,44.012890 73.181099,47.389408 71.127670,50.833694 
	C84.757515,50.833694 97.877419,50.833694 111.911919,50.982712 
	C115.939964,50.932827 119.968010,50.882942 124.844299,50.982182 
	C126.561447,50.932983 128.278595,50.883785 130.820435,50.982635 
	C132.212189,50.933052 133.603958,50.883465 135.787231,50.980816 
	C136.856293,50.931744 137.925354,50.882671 139.786179,50.980282 
	C140.855515,50.931240 141.924835,50.882195 143.737015,50.978508 
	C144.489517,50.930725 145.242035,50.882938 146.786179,50.981228 
	C147.854797,50.932381 148.923431,50.883530 150.783249,50.980350 
	C151.851746,50.931049 152.920258,50.881748 154.780640,50.977993 
	C155.849915,50.929859 156.919174,50.881725 158.729309,50.973442 
	C160.144196,50.351265 161.559097,49.729088 163.299408,49.770195 
	C167.555237,53.342026 169.436829,49.149612 171.974533,47.847801 
	C172.025162,48.578468 172.075775,49.309132 172.164124,50.499821 
	C172.337265,50.816898 172.599686,50.934044 173.701920,50.968384 
	C174.457916,50.923847 175.213928,50.879307 176.631866,50.950970 
	C177.077454,50.922554 177.523056,50.894142 178.633804,50.951260 
M74.314178,29.380875 
	C74.098877,31.634626 73.883583,33.888378 73.668282,36.142132 
	C75.838242,36.207203 78.007957,36.301540 80.178299,36.319157 
	C80.812920,36.324306 81.449295,36.111095 82.381271,36.792549 
	C86.560112,36.622547 91.299805,38.964802 94.772751,34.225403 
	C94.711967,35.111931 94.651176,35.998455 94.579704,37.040749 
	C96.128067,36.958385 97.412270,36.890076 98.714066,36.820827 
	C97.197540,33.715885 95.764107,30.781067 93.956970,27.081121 
	C92.429970,30.308437 91.316170,32.662449 90.202370,35.016464 
	C89.250679,33.707729 89.417938,32.433880 89.201508,31.228941 
	C89.003021,30.123905 88.408989,28.194618 87.957382,28.185383 
	C86.006248,28.145479 84.043427,28.677168 81.411057,29.622368 
	C79.141266,28.117201 76.827179,25.955833 74.993408,30.003637 
	C74.993408,30.003637 75.048820,29.945850 74.314178,29.380875 
M45.637440,28.219580 
	C42.111923,28.129827 37.929199,26.321880 36.944466,30.620636 
	C33.895355,29.484301 30.879560,28.360382 27.971642,27.276667 
	C27.796122,30.839739 27.672581,33.347641 27.549040,35.855545 
	C26.939600,35.842949 26.330158,35.830349 25.720718,35.817749 
	C25.720718,33.274376 25.720718,30.731003 25.720718,28.139145 
	C22.069675,28.139145 18.773067,28.139145 15.661180,28.139145 
	C15.661180,31.072649 15.661180,33.866970 15.661180,36.786983 
	C22.065769,38.538940 19.813103,31.359392 22.257065,29.781460 
	C23.028072,32.093842 23.729925,36.454338 24.613285,36.491421 
	C31.694735,36.788715 38.810467,36.269375 46.567154,35.380665 
	C51.176174,37.979736 55.560211,37.982536 59.885239,33.676140 
	C59.788357,35.150288 59.730228,36.034779 59.666817,36.999691 
	C62.387768,36.999691 65.061852,36.849049 67.711693,37.038082 
	C70.973282,37.270763 72.094788,35.979313 72.087334,32.714458 
	C72.079865,29.442595 71.359688,27.541010 67.643486,27.973488 
	C66.230476,28.137930 64.782295,28.000219 63.677048,28.000219 
	C63.677048,30.795753 63.677048,33.154484 63.677048,36.675194 
	C61.928360,33.119205 60.643673,30.506763 59.580551,28.344881 
	C56.337883,30.927446 53.420071,33.251289 49.749416,36.174721 
	C49.264111,34.313583 48.842159,32.695423 48.420212,31.077265 
	C50.199966,30.613705 51.979725,30.150146 54.065121,29.606979 
	C53.724503,29.223557 53.162567,28.086609 52.660397,28.112421 
	C50.402740,28.228474 48.162060,28.674721 45.637440,28.219580 
M145.520569,35.989002 
	C149.811050,37.604855 154.010529,38.648319 157.622406,32.857235 
	C157.622406,35.057514 157.622406,35.996899 157.622406,37.526783 
	C162.096741,35.655621 167.263214,39.400356 170.847382,34.451080 
	C173.234726,36.961819 176.077942,38.800671 178.716553,35.467106 
	C179.721802,34.197105 179.722641,30.762197 178.706635,29.521244 
	C175.759735,25.921907 172.928055,28.521673 170.429459,30.806160 
	C168.465210,25.969849 164.530869,28.720804 162.114990,28.177448 
	C162.114990,30.711142 162.114990,33.146240 162.114990,35.581337 
	C161.764511,35.608280 161.414032,35.635223 161.063553,35.662167 
	C159.827072,33.024502 158.590576,30.386835 156.990723,26.974039 
	C155.470261,30.157337 154.442963,32.308151 152.789703,35.769451 
	C153.062057,32.282280 153.219635,30.264826 153.395874,28.008310 
	C152.010086,28.083115 150.633026,28.157448 150.050919,28.188869 
	C149.862015,31.060869 149.703491,33.470970 149.544983,35.881065 
	C148.839325,35.878006 148.133667,35.874947 147.427994,35.871887 
	C147.305420,33.331425 147.182846,30.790964 147.029419,27.611458 
	C143.615494,28.106157 139.875885,28.648046 136.817993,29.091152 
	C133.951614,28.563768 131.322433,28.080027 129.251328,27.698963 
	C129.251328,31.066263 129.251328,33.969349 129.251328,36.891720 
	C142.360962,37.369980 142.360962,37.369980 143.310791,35.069016 
	C141.664291,34.612663 138.633286,34.410301 138.475769,33.628780 
	C137.124023,26.922020 142.962601,31.525229 145.071655,29.372564 
	C145.071655,31.609377 145.071655,33.435932 145.520569,35.989002 
M121.244942,37.000004 
	C123.177589,36.557243 125.110237,36.114483 127.042885,35.671722 
	C126.854660,35.113873 126.666443,34.556019 126.478226,33.998165 
	C125.179810,34.687653 123.881393,35.377136 121.733826,36.517540 
	C121.733826,33.238903 121.733826,30.648714 121.733826,28.183216 
	C118.501846,28.183216 114.874908,28.183216 111.549500,28.183216 
	C111.549500,31.146475 111.549500,33.926517 111.549500,37.000000 
	C114.378273,37.000000 117.350243,37.000000 121.244942,37.000004 
M109.916443,35.505325 
	C112.298706,30.520699 110.051575,26.537102 102.246262,28.035841 
	C102.246262,31.064938 102.246262,33.963196 102.246262,37.279224 
	C104.283989,36.940525 106.812592,36.520233 109.916443,35.505325 
M182.646622,28.000715 
	C181.845901,28.087685 181.045166,28.174654 180.632309,28.219498 
	C180.632309,31.234512 180.632309,34.027283 180.632309,36.655853 
	C183.116089,36.655853 185.483643,36.655853 187.916565,36.655853 
	C187.409973,34.867138 186.192337,32.921597 186.725555,32.061703 
	C189.773819,27.145796 185.805908,28.313211 182.646622,28.000715 
z"/>
<path fill="#1A5A9B" opacity="1.000000" stroke="none" 
	d="
M97.539368,1.000000 
	C98.000000,8.466088 98.000000,15.932177 98.000000,23.697552 
	C94.991798,23.697552 92.267601,23.697552 89.086060,23.697552 
	C89.086060,19.678286 89.086060,15.668658 89.086060,11.499084 
	C84.776833,15.553997 88.401077,26.352819 77.429337,23.702625 
	C76.161713,20.002762 74.881714,16.266747 73.601707,12.530733 
	C73.408943,12.569105 73.216187,12.607477 73.023422,12.645849 
	C73.023422,16.214703 73.023422,19.783556 73.023422,23.674421 
	C70.705345,23.674421 68.645149,23.674421 66.000000,23.674421 
	C66.000000,16.475853 66.000000,9.206568 66.000000,1.468641 
	C69.692909,1.000000 73.385818,1.000000 77.546738,1.388647 
	C79.257767,5.227933 80.500786,8.678573 82.164062,13.295814 
	C83.725777,8.289852 84.862892,4.644926 86.000000,1.000000 
	C89.692909,1.000000 93.385818,1.000000 97.539368,1.000000 
z"/>
<path fill="#1A5A9B" opacity="1.000000" stroke="none" 
	d="
M130.532394,1.000000 
	C139.983002,5.443917 141.839447,9.246819 139.028809,17.205704 
	C137.482925,21.583218 134.083084,23.543013 129.831314,23.925882 
	C126.049988,24.266392 122.213905,23.999096 118.401993,23.999899 
	C117.110954,24.000170 115.819916,23.999939 114.000000,23.999939 
	C114.000000,16.408960 114.000000,9.173121 114.000000,1.468642 
	C119.354927,1.000000 124.709862,1.000000 130.532394,1.000000 
M130.998413,12.494793 
	C130.312592,8.115596 128.624268,5.002521 123.215805,6.331712 
	C123.215805,10.537115 123.215805,14.641418 123.215805,18.723619 
	C128.124008,19.949760 130.000183,17.240622 130.998413,12.494793 
z"/>
<path fill="#054B98" opacity="1.000000" stroke="none" 
	d="
M43.467606,65.000000 
	C46.227955,59.273819 49.928921,53.755497 52.560390,47.767197 
	C55.632851,40.775352 60.599556,38.854095 67.592751,39.953609 
	C69.530632,40.258297 71.557030,40.000000 74.393951,40.000000 
	C69.401093,48.421108 64.704605,56.342358 60.004055,64.631805 
	C54.645069,65.000000 49.290142,65.000000 43.467606,65.000000 
z"/>
<path fill="#054B98" opacity="1.000000" stroke="none" 
	d="
M22.466862,65.000000 
	C25.219910,59.256294 28.919579,53.721272 31.532713,47.713642 
	C34.493122,40.907616 39.133530,38.725067 46.097145,39.944744 
	C48.145966,40.303596 50.310818,40.000000 53.468170,40.000000 
	C48.096130,48.547306 43.138920,56.434589 38.090858,64.660934 
	C32.977909,65.000000 27.955816,65.000000 22.466862,65.000000 
z"/>
<path fill="#054B98" opacity="1.000000" stroke="none" 
	d="
M1.000001,62.500000 
	C4.342535,56.937389 8.114306,52.098507 10.903361,46.747417 
	C13.538818,41.691017 16.630968,38.868092 22.648449,39.918854 
	C25.384642,40.396648 28.273529,40.000000 32.174995,40.000000 
	C26.966873,48.447254 22.074570,56.382267 17.091133,64.658638 
	C12.166667,65.000000 7.331471,65.060623 2.502694,64.912292 
	C1.982708,64.896324 1.500001,63.666664 1.000001,62.500000 
z"/>
<path fill="#1A5A9B" opacity="1.000000" stroke="none" 
	d="
M163.531433,1.000000 
	C164.000000,2.491900 164.000000,3.983800 164.000000,5.893870 
	C159.750504,5.893870 155.652969,5.893870 150.637802,5.893870 
	C152.209091,12.824535 157.866486,8.318353 160.762054,10.751424 
	C160.762054,11.781833 160.762054,13.173607 160.762054,14.501585 
	C157.423080,14.970818 154.259644,15.370741 151.135422,15.973760 
	C150.961929,16.007246 151.112991,17.722225 151.112991,18.947935 
	C155.448837,18.947935 159.395584,18.947935 163.690460,18.947935 
	C163.818100,20.608438 163.925110,22.000772 164.056442,23.709442 
	C156.720398,23.709442 149.654144,23.709442 142.000000,23.709442 
	C142.000000,16.447258 142.000000,9.192270 142.000000,1.468642 
	C149.020950,1.000000 156.041901,1.000000 163.531433,1.000000 
z"/>
<path fill="#1A5A9B" opacity="1.000000" stroke="none" 
	d="
M187.531372,1.000000 
	C186.775681,4.059121 185.939285,7.360288 184.222305,10.112013 
	C182.355911,13.103174 179.671066,15.583643 176.899521,18.801804 
	C180.762772,18.801804 183.994415,18.801804 187.607391,18.801804 
	C187.607391,20.624273 187.607391,22.122131 187.607391,23.814335 
	C180.220428,23.814335 172.935425,23.814335 163.989944,23.814335 
	C165.777466,20.372452 166.931137,17.440170 168.699402,14.943117 
	C170.522552,12.368561 172.944061,10.217731 175.967422,6.947284 
	C171.418625,6.947284 168.473221,6.947284 165.000000,6.947284 
	C165.000000,5.092038 165.000000,3.490868 165.000000,1.444849 
	C172.354248,1.000000 179.708496,1.000000 187.531372,1.000000 
z"/>
<path fill="#1A5A9B" opacity="1.000000" stroke="none" 
	d="
M61.571537,1.000000 
	C61.999989,5.988281 62.020180,10.976666 61.994431,15.964815 
	C61.967323,21.217218 59.140366,23.967314 53.781994,23.997728 
	C51.454205,24.010941 49.123211,24.076265 46.799049,23.983324 
	C41.955677,23.789642 39.026737,20.727568 39.004639,15.903755 
	C38.983307,11.248128 39.000008,6.592328 39.000000,1.468302 
	C41.370556,1.000000 43.741116,1.000000 46.555836,1.466254 
	C47.000500,5.751040 46.881508,9.574615 47.042427,13.386374 
	C47.154499,16.040968 47.564560,18.988701 51.136070,18.919231 
	C54.411800,18.855515 55.997578,16.719156 55.998199,13.451729 
	C55.998985,9.301152 55.999413,5.150576 56.000000,1.000000 
	C57.714359,1.000000 59.428715,1.000000 61.571537,1.000000 
z"/>
<path fill="#1A5A9B" opacity="1.000000" stroke="none" 
	d="
M36.531467,1.000000 
	C37.000000,2.492704 37.000000,3.985408 37.000000,5.899804 
	C32.742775,5.899804 28.642733,5.899804 24.588102,5.899804 
	C24.218380,9.861126 24.218380,9.861126 32.579041,10.104611 
	C32.579041,11.579292 32.579041,13.076286 32.579041,14.999951 
	C31.434715,14.999951 30.307497,14.999950 29.180281,14.999950 
	C28.021698,14.999950 26.863115,14.999951 25.239063,14.999951 
	C25.239063,17.874128 25.239063,20.610653 25.239063,23.673756 
	C22.057041,23.673756 19.327524,23.673756 16.000000,23.673756 
	C16.000000,16.467588 16.000000,9.202435 16.000000,1.468642 
	C22.687645,1.000000 29.375290,1.000000 36.531467,1.000000 
z"/>
<path fill="#1A5A9B" opacity="1.000000" stroke="none" 
	d="
M109.555832,1.000000 
	C110.000000,8.457746 110.000000,15.915490 110.000000,23.685238 
	C107.351410,23.685238 104.961380,23.685238 102.000000,23.685238 
	C102.000000,16.454832 102.000000,9.196057 102.000000,1.468642 
	C104.370560,1.000000 106.741112,1.000000 109.555832,1.000000 
z"/>
<path fill="#FFFFFF" opacity="1.000000" stroke="none" 
	d="
M55.550018,1.000000 
	C55.999413,5.150576 55.998985,9.301152 55.998199,13.451729 
	C55.997578,16.719156 54.411800,18.855515 51.136070,18.919231 
	C47.564560,18.988701 47.154499,16.040968 47.042427,13.386374 
	C46.881508,9.574615 47.000500,5.751040 47.000000,1.466254 
	C49.700012,1.000000 52.400028,1.000000 55.550018,1.000000 
z"/>
<path fill="#FFFFFF" opacity="1.000000" stroke="none" 
	d="
M85.555832,1.000000 
	C84.862892,4.644926 83.725777,8.289852 82.164062,13.295814 
	C80.500786,8.678573 79.257767,5.227933 78.007370,1.388647 
	C80.370560,1.000000 82.741112,1.000000 85.555832,1.000000 
z"/>
<path fill="#E30613" opacity="1.000000" stroke="none" 
	d="
M151.966995,62.103138 
	C148.829712,62.735519 145.695404,63.899071 142.554672,63.916653 
	C116.274445,64.063759 89.993027,64.000282 62.941463,64.000282 
	C65.128380,60.390770 66.952469,57.069286 69.133308,54.001423 
	C69.671631,53.244148 71.369408,53.042007 72.535156,53.039494 
	C96.821007,52.987133 121.107239,52.955601 145.392502,53.086201 
	C147.321335,53.096573 149.243622,54.319614 151.578506,55.388367 
	C151.981033,57.899467 151.974014,60.001305 151.966995,62.103138 
z"/>
<path fill="#054B98" opacity="1.000000" stroke="none" 
	d="
M110.997330,50.833694 
	C97.877419,50.833694 84.757515,50.833694 71.127670,50.833694 
	C73.181099,47.389408 75.001923,44.012890 77.192474,40.896252 
	C77.715370,40.152306 79.470634,40.043472 80.661400,40.036469 
	C90.464073,39.978825 100.267288,40.014141 110.534744,40.537086 
	C110.998543,44.313160 110.997940,47.573429 110.997330,50.833694 
z"/>
<path fill="#054B98" opacity="1.000000" stroke="none" 
	d="
M145.296112,35.625744 
	C145.071655,33.435932 145.071655,31.609377 145.071655,29.372564 
	C142.962601,31.525229 137.124023,26.922020 138.475769,33.628780 
	C138.633286,34.410301 141.664291,34.612663 143.310791,35.069016 
	C142.360962,37.369980 142.360962,37.369980 129.251328,36.891720 
	C129.251328,33.969349 129.251328,31.066263 129.251328,27.698963 
	C131.322433,28.080027 133.951614,28.563768 136.817993,29.091152 
	C139.875885,28.648046 143.615494,28.106157 147.029419,27.611458 
	C147.182846,30.790964 147.305420,33.331425 147.427994,35.871887 
	C148.133667,35.874947 148.839325,35.878006 149.544983,35.881065 
	C149.703491,33.470970 149.862015,31.060869 150.050919,28.188869 
	C150.633026,28.157448 152.010086,28.083115 153.395874,28.008310 
	C153.219635,30.264826 153.062057,32.282280 152.789703,35.769451 
	C154.442963,32.308151 155.470261,30.157337 156.990723,26.974039 
	C158.590576,30.386835 159.827072,33.024502 161.063553,35.662167 
	C161.414032,35.635223 161.764511,35.608280 162.114990,35.581337 
	C162.114990,33.146240 162.114990,30.711142 162.114990,28.177448 
	C164.530869,28.720804 168.465210,25.969849 170.429459,30.806160 
	C172.928055,28.521673 175.759735,25.921907 178.706635,29.521244 
	C179.722641,30.762197 179.721802,34.197105 178.716553,35.467106 
	C176.077942,38.800671 173.234726,36.961819 170.847382,34.451080 
	C167.263214,39.400356 162.096741,35.655621 157.622406,37.526783 
	C157.622406,35.996899 157.622406,35.057514 157.622406,32.857235 
	C154.010529,38.648319 149.811050,37.604855 145.296112,35.625744 
M173.049622,33.243145 
	C174.109314,35.175137 175.772095,36.493019 177.494507,34.628201 
	C178.179443,33.886639 177.175644,31.585329 176.940659,29.994106 
	C175.630890,30.829401 174.321121,31.664696 173.049622,33.243145 
z"/>
<path fill="#054B98" opacity="1.000000" stroke="none" 
	d="
M45.915707,35.999924 
	C38.810467,36.269375 31.694735,36.788715 24.613285,36.491421 
	C23.729925,36.454338 23.028072,32.093842 22.257065,29.781460 
	C19.813103,31.359392 22.065769,38.538940 15.661180,36.786983 
	C15.661180,33.866970 15.661180,31.072649 15.661180,28.139145 
	C18.773067,28.139145 22.069675,28.139145 25.720718,28.139145 
	C25.720718,30.731003 25.720718,33.274376 25.720718,35.817749 
	C26.330158,35.830349 26.939600,35.842949 27.549040,35.855545 
	C27.672581,33.347641 27.796122,30.839739 27.971642,27.276667 
	C30.879560,28.360382 33.895355,29.484301 36.944466,30.620636 
	C37.929199,26.321880 42.111923,28.129827 45.806671,28.598652 
	C45.975899,28.977722 46.018314,28.928104 45.648491,29.100090 
	C45.525169,31.538673 45.771671,33.805275 45.997051,36.047485 
	C45.975929,36.023094 45.915707,35.999924 45.915707,35.999924 
M18.717995,34.950691 
	C18.782637,34.485516 18.847281,34.020336 18.911921,33.555161 
	C18.644987,33.870686 18.378052,34.186211 18.717995,34.950691 
z"/>
<path fill="#054B98" opacity="1.000000" stroke="none" 
	d="
M45.945580,28.989803 
	C48.162060,28.674721 50.402740,28.228474 52.660397,28.112421 
	C53.162567,28.086609 53.724503,29.223557 54.065121,29.606979 
	C51.979725,30.150146 50.199966,30.613705 48.420212,31.077263 
	C48.842159,32.695423 49.264111,34.313583 49.749416,36.174721 
	C53.420071,33.251289 56.337883,30.927446 59.580551,28.344881 
	C60.643673,30.506763 61.928360,33.119205 63.677048,36.675194 
	C63.677048,33.154484 63.677048,30.795753 63.677048,28.000219 
	C64.782295,28.000219 66.230476,28.137930 67.643486,27.973488 
	C71.359688,27.541010 72.079865,29.442595 72.087334,32.714458 
	C72.094788,35.979313 70.973282,37.270763 67.711693,37.038082 
	C65.061852,36.849049 62.387768,36.999691 59.666817,36.999691 
	C59.730228,36.034779 59.788357,35.150288 59.885239,33.676140 
	C55.560211,37.982536 51.176174,37.979736 46.241432,35.690292 
	C45.915707,35.999924 45.975929,36.023094 46.295025,35.653667 
	C46.415520,33.165527 46.216919,31.046816 46.018314,28.928104 
	C46.018314,28.928104 45.975899,28.977722 45.945580,28.989803 
z"/>
<path fill="#084C99" opacity="1.000000" stroke="none" 
	d="
M111.454620,50.908203 
	C110.997940,47.573429 110.998543,44.313160 110.998230,40.609604 
	C115.025505,40.118519 119.053703,40.070728 123.540268,40.538433 
	C123.997772,44.313637 123.996918,47.573349 123.996056,50.833061 
	C119.968010,50.882942 115.939964,50.932827 111.454620,50.908203 
z"/>
<path fill="#054B98" opacity="1.000000" stroke="none" 
	d="
M82.084854,29.000866 
	C84.043427,28.677168 86.006248,28.145479 87.957382,28.185383 
	C88.408989,28.194618 89.003021,30.123905 89.201508,31.228941 
	C89.417938,32.433880 89.250679,33.707729 90.202370,35.016464 
	C91.316170,32.662449 92.429970,30.308437 93.956970,27.081121 
	C95.764107,30.781067 97.197540,33.715885 98.714066,36.820827 
	C97.412270,36.890076 96.128067,36.958385 94.579704,37.040749 
	C94.651176,35.998455 94.711967,35.111931 94.772751,34.225403 
	C91.299805,38.964802 86.560112,36.622547 82.202728,36.407387 
	C82.024178,36.022224 81.981689,36.071896 82.351509,35.899910 
	C82.474831,33.461327 82.228325,31.194727 82.003098,28.952671 
	C82.024361,28.977215 82.084854,29.000868 82.084854,29.000866 
z"/>
<path fill="#054B98" opacity="1.000000" stroke="none" 
	d="
M120.783577,37.000000 
	C117.350243,37.000000 114.378273,37.000000 111.549500,37.000000 
	C111.549500,33.926517 111.549500,31.146475 111.549500,28.183216 
	C114.874908,28.183216 118.501846,28.183216 121.733826,28.183216 
	C121.733826,30.648714 121.733826,33.238903 121.733826,36.517540 
	C123.881393,35.377136 125.179810,34.687653 126.478226,33.998165 
	C126.666443,34.556019 126.854660,35.113873 127.042885,35.671722 
	C125.110237,36.114483 123.177589,36.557243 120.783577,37.000000 
z"/>
<path fill="#6C81BC" opacity="1.000000" stroke="none" 
	d="
M171.978607,47.116165 
	C169.436829,49.149612 167.555237,53.342026 163.145111,48.987648 
	C162.985031,46.101246 162.979279,43.997391 162.973526,41.893536 
	C166.244156,37.247105 168.575317,41.907253 171.648682,43.232780 
	C171.995438,44.860157 171.987015,45.988159 171.978607,47.116165 
z"/>
<path fill="#054B98" opacity="1.000000" stroke="none" 
	d="
M109.628815,35.802635 
	C106.812592,36.520233 104.283989,36.940525 102.246262,37.279224 
	C102.246262,33.963196 102.246262,31.064938 102.246262,28.035841 
	C110.051575,26.537102 112.298706,30.520699 109.628815,35.802635 
z"/>
<path fill="#0E4E9A" opacity="1.000000" stroke="none" 
	d="
M124.420181,50.907623 
	C123.996918,47.573349 123.997772,44.313637 123.997330,40.610432 
	C125.712944,40.118755 127.429863,40.070572 129.572876,40.535828 
	C129.997910,44.311039 129.996826,47.572815 129.995743,50.834587 
	C128.278595,50.883785 126.561447,50.932983 124.420181,50.907623 
z"/>
<path fill="#054B98" opacity="1.000000" stroke="none" 
	d="
M183.060181,28.000412 
	C185.805908,28.313211 189.773819,27.145796 186.725555,32.061703 
	C186.192337,32.921597 187.409973,34.867138 187.916565,36.655853 
	C185.483643,36.655853 183.116089,36.655853 180.632309,36.655853 
	C180.632309,34.027283 180.632309,31.234512 180.632309,28.219498 
	C181.045166,28.174654 181.845901,28.087685 183.060181,28.000412 
z"/>
<path fill="#14509C" opacity="1.000000" stroke="none" 
	d="
M130.408081,50.908611 
	C129.996826,47.572815 129.997910,44.311039 129.997345,40.607338 
	C131.387360,40.117825 132.778992,40.070240 134.584763,40.536407 
	C134.997833,44.311405 134.996780,47.572643 134.995712,50.833881 
	C133.603958,50.883465 132.212189,50.933052 130.408081,50.908611 
z"/>
<path fill="#526EB1" opacity="1.000000" stroke="none" 
	d="
M162.633209,41.818710 
	C162.979279,43.997391 162.985031,46.101246 162.982391,48.656006 
	C161.559097,49.729088 160.144196,50.351265 158.363068,50.461571 
	C157.994064,46.688602 157.991302,43.427509 157.988525,40.166412 
	C159.423325,40.692234 160.858109,41.218056 162.633209,41.818710 
z"/>
<path fill="#054B98" opacity="1.000000" stroke="none" 
	d="
M82.054520,36.010094 
	C81.449295,36.111095 80.812920,36.324306 80.178299,36.319157 
	C78.007957,36.301540 75.838242,36.207203 73.668282,36.142132 
	C73.883583,33.888378 74.098877,31.634626 74.660141,30.070063 
	C75.691124,32.345787 76.376137,33.932327 77.061150,35.518867 
	C78.017052,34.778633 79.747238,34.045231 79.753838,33.296612 
	C79.764717,32.064053 78.887245,30.576872 77.929070,29.687378 
	C77.455040,29.247326 75.965889,29.900782 74.936028,30.059477 
	C76.827179,25.955833 79.141266,28.117201 81.747955,29.311619 
	C82.084854,29.000868 82.024361,28.977215 81.705116,29.346483 
	C81.584480,31.834465 81.783089,33.953182 81.981689,36.071896 
	C81.981689,36.071896 82.024178,36.022224 82.054520,36.010094 
z"/>
<path fill="#E8432E" opacity="1.000000" stroke="none" 
	d="
M158.980865,63.825035 
	C157.910782,63.879955 156.840683,63.934875 155.382568,63.470196 
	C154.989426,59.688515 154.984314,56.426434 154.979218,53.164360 
	C156.048508,53.121307 157.117783,53.078251 158.589539,53.546501 
	C158.988297,57.313549 158.984589,60.569294 158.980865,63.825035 
z"/>
<path fill="#19529D" opacity="1.000000" stroke="none" 
	d="
M135.391479,50.907349 
	C134.996780,47.572643 134.997833,44.311405 134.997284,40.608139 
	C136.064514,40.118786 137.133331,40.071457 138.600327,40.537224 
	C138.997131,44.311417 138.995773,47.572510 138.994415,50.833599 
	C137.925354,50.882671 136.856293,50.931744 135.391479,50.907349 
z"/>
<path fill="#2155A0" opacity="1.000000" stroke="none" 
	d="
M139.390289,50.906940 
	C138.995773,47.572510 138.997131,44.311417 138.996429,40.608368 
	C140.063477,40.119358 141.132553,40.072311 142.600006,40.538383 
	C142.996964,44.312050 142.995575,47.572601 142.994171,50.833153 
	C141.924835,50.882195 140.855515,50.931240 139.390289,50.906940 
z"/>
<path fill="#305BA4" opacity="1.000000" stroke="none" 
	d="
M149.992050,50.834682 
	C148.923431,50.883530 147.854797,50.932381 146.392456,50.465736 
	C145.997330,46.688442 145.995941,43.426643 145.994568,40.164845 
	C147.062744,40.118805 148.130936,40.072765 149.598572,40.537891 
	C149.996017,44.310936 149.994034,47.572807 149.992050,50.834682 
z"/>
<path fill="#3960A7" opacity="1.000000" stroke="none" 
	d="
M150.387650,50.907516 
	C149.994034,47.572807 149.996017,44.310936 149.994995,40.607189 
	C151.060013,40.120651 152.128052,40.075989 153.596390,40.541458 
	C153.994049,44.311878 153.991409,47.572163 153.988754,50.832451 
	C152.920258,50.881748 151.851746,50.931049 150.387650,50.907516 
z"/>
<path fill="#4667AC" opacity="1.000000" stroke="none" 
	d="
M154.384705,50.905220 
	C153.991409,47.572163 153.994049,44.311878 153.992691,40.609570 
	C155.057373,40.122444 156.126068,40.077339 157.591644,40.099323 
	C157.991302,43.427509 157.994064,46.688602 157.992645,50.391644 
	C156.919174,50.881725 155.849915,50.929859 154.384705,50.905220 
z"/>
<path fill="#96A1D0" opacity="1.000000" stroke="none" 
	d="
M171.976562,47.481983 
	C171.987015,45.988159 171.995438,44.860157 171.991272,43.307983 
	C171.988678,42.453972 171.998688,42.024120 172.249176,41.191936 
	C172.716400,40.628300 172.870911,40.414726 172.953201,40.148888 
	C173.708969,40.114170 174.464722,40.079453 175.604309,40.546753 
	C175.982056,44.310768 175.975983,47.572773 175.969925,50.834770 
	C175.213928,50.879307 174.457916,50.923847 173.238525,50.729996 
	C172.610519,50.266907 172.394272,50.116302 172.126404,50.039799 
	C172.075775,49.309132 172.025162,48.578468 171.976562,47.481983 
z"/>
<path fill="#F39B7E" opacity="1.000000" stroke="none" 
	d="
M169.984879,63.856171 
	C169.532608,63.881439 169.080322,63.906708 168.301804,63.455460 
	C167.983414,61.319565 167.991272,59.660191 168.259918,57.797115 
	C169.018341,56.133942 169.515976,54.674465 170.013611,53.214989 
	C170.881439,53.265366 171.749237,53.315739 172.822357,53.939369 
	C173.061264,54.759361 173.094864,55.006096 173.128448,55.252834 
	C172.951981,56.240696 172.775497,57.228558 172.215057,58.829300 
	C171.660889,60.761425 171.490677,62.080662 171.320465,63.399899 
	C171.320465,63.399899 171.187225,63.380787 170.933228,63.305710 
	C170.365311,63.347607 170.133850,63.556118 169.984879,63.856171 
z"/>
<path fill="#E5251F" opacity="1.000000" stroke="none" 
	d="
M154.615021,53.098274 
	C154.984314,56.426434 154.989426,59.688515 154.986816,63.393120 
	C153.989716,63.503746 153.000336,63.171848 151.988983,62.471542 
	C151.974014,60.001305 151.981033,57.899467 151.977570,55.347206 
	C152.728317,54.275249 153.489578,53.653717 154.615021,53.098274 
z"/>
<path fill="#2858A1" opacity="1.000000" stroke="none" 
	d="
M145.622528,40.095337 
	C145.995941,43.426643 145.997330,46.688442 145.996628,50.392700 
	C145.242035,50.882938 144.489517,50.930725 143.365601,50.905830 
	C142.995575,47.572601 142.996964,44.312050 142.996246,40.609173 
	C143.746262,40.119843 144.498383,40.072834 145.622528,40.095337 
z"/>
<path fill="#C5C8E6" opacity="1.000000" stroke="none" 
	d="
M183.967041,44.997437 
	C182.832428,46.871025 181.697815,48.744617 180.278046,50.311211 
	C179.985748,46.703804 179.978622,43.403400 179.971481,40.102997 
	C180.716476,40.079063 181.461487,40.055130 182.596390,40.426193 
	C183.313217,42.213276 183.640121,43.605358 183.967041,44.997437 
z"/>
<path fill="#F08566" opacity="1.000000" stroke="none" 
	d="
M167.999115,58.000816 
	C167.991272,59.660191 167.983414,61.319565 167.967712,63.390644 
	C167.213654,63.856297 166.467453,63.910244 165.358398,63.459579 
	C164.990799,59.690052 164.986023,56.425137 164.981262,53.160217 
	C165.421310,53.119865 165.861359,53.079510 166.652039,53.458321 
	C167.334824,55.251923 167.666977,56.626369 167.999115,58.000816 
z"/>
<path fill="#B5BBDF" opacity="1.000000" stroke="none" 
	d="
M179.637817,40.071320 
	C179.978622,43.403400 179.985748,46.703804 179.982178,50.450653 
	C179.525574,50.915157 179.079697,50.933208 178.312271,50.464417 
	C177.983383,46.696533 177.976028,43.415497 177.968658,40.134460 
	C178.413818,40.102852 178.858994,40.071247 179.637817,40.071320 
z"/>
<path fill="#EE7657" opacity="1.000000" stroke="none" 
	d="
M164.649628,53.099014 
	C164.986023,56.425137 164.990799,59.690052 164.988373,63.397377 
	C164.535263,63.881058 164.089355,63.922329 163.318893,63.455967 
	C162.990265,59.688335 162.986191,56.428333 162.982101,53.168335 
	C163.427399,53.124828 163.872681,53.081318 164.649628,53.099014 
z"/>
<path fill="#EC6648" opacity="1.000000" stroke="none" 
	d="
M162.651428,53.102814 
	C162.986191,56.428333 162.990265,59.688335 162.988174,63.389999 
	C162.536835,63.877743 162.091675,63.923820 161.321457,63.460403 
	C160.992950,59.688892 160.989487,56.426876 160.986023,53.164860 
	C161.430939,53.122337 161.875854,53.079811 162.651428,53.102814 
z"/>
<path fill="#A5ADD7" opacity="1.000000" stroke="none" 
	d="
M177.635925,40.090321 
	C177.976028,43.415497 177.983383,46.696533 177.979691,50.421650 
	C177.523056,50.894142 177.077454,50.922554 176.300903,50.892872 
	C175.975983,47.572773 175.982056,44.310768 175.979004,40.607014 
	C176.414307,40.125568 176.858749,40.085876 177.635925,40.090321 
z"/>
<path fill="#EA573C" opacity="1.000000" stroke="none" 
	d="
M160.653473,53.099014 
	C160.989487,56.426876 160.992950,59.688892 160.991150,63.393028 
	C160.538239,63.880470 160.090591,63.925797 159.311890,63.898079 
	C158.984589,60.569294 158.988297,57.313549 158.986389,53.616386 
	C159.427475,53.127701 159.874191,53.080437 160.653473,53.099014 
z"/>
<path fill="#DFE1F2" opacity="1.000000" stroke="none" 
	d="
M184.258270,44.800308 
	C183.640121,43.605358 183.313217,42.213276 182.969177,40.441936 
	C187.850174,40.040237 185.574051,42.541878 184.258270,44.800308 
z"/>
<path fill="#F4A387" opacity="1.000000" stroke="none" 
	d="
M168.259903,57.797115 
	C167.666977,56.626369 167.334824,55.251923 166.982086,53.501522 
	C167.728134,53.099258 168.494751,53.072948 169.637497,53.130814 
	C169.515976,54.674465 169.018341,56.133942 168.259903,57.797115 
z"/>
<path fill="#F7B59B" opacity="1.000000" stroke="none" 
	d="
M171.503525,63.511780 
	C171.490677,62.080662 171.660889,60.761425 172.052490,59.088882 
	C172.712555,59.025650 173.151230,59.315727 173.788208,60.005859 
	C173.986542,60.405914 173.961243,60.903862 173.961243,60.903862 
	C173.937271,61.368153 173.913300,61.832439 173.681030,62.749046 
	C173.256607,63.377632 173.095078,63.594582 172.988190,63.852219 
	C172.554321,63.776035 172.120453,63.699848 171.503525,63.511780 
z"/>
<path fill="#F8BEA6" opacity="1.000000" stroke="none" 
	d="
M173.324249,55.428371 
	C173.094864,55.006096 173.061264,54.759361 173.082825,54.140244 
	C173.771423,53.922630 174.849258,53.944973 174.943283,54.260471 
	C175.123932,54.866749 174.747070,55.639164 174.601471,56.342667 
	C174.240997,56.096416 173.880524,55.850163 173.324249,55.428371 
z"/>
<path fill="#8A96CA" opacity="1.000000" stroke="none" 
	d="
M172.145264,50.269810 
	C172.394272,50.116302 172.610519,50.266907 172.863266,50.671436 
	C172.599686,50.934044 172.337265,50.816898 172.145264,50.269810 
z"/>
<path fill="#8A96CA" opacity="1.000000" stroke="none" 
	d="
M172.722748,40.161240 
	C172.870911,40.414726 172.716400,40.628300 172.308014,40.874146 
	C172.055954,40.607277 172.177933,40.345577 172.722748,40.161240 
z"/>
<path fill="#F8BEA6" opacity="1.000000" stroke="none" 
	d="
M174.161362,60.839523 
	C173.961243,60.903862 173.986542,60.405914 174.006165,60.156437 
	C174.222351,60.085468 174.428391,60.255730 174.601639,60.454567 
	C174.620026,60.475689 174.446167,60.664284 174.161362,60.839523 
z"/>
<path fill="#F7B59B" opacity="1.000000" stroke="none" 
	d="
M170.230377,63.863964 
	C170.133850,63.556118 170.365311,63.347607 170.919037,63.239929 
	C171.075226,63.614697 170.847580,63.822208 170.230377,63.863964 
z"/>
<path fill="#F9C6B1" opacity="1.000000" stroke="none" 
	d="
M173.215500,63.814087 
	C173.095078,63.594582 173.256607,63.377632 173.646790,63.096024 
	C173.872696,63.338127 173.746689,63.599888 173.215500,63.814087 
z"/>
<path fill="#FFFFFF" opacity="1.000000" stroke="none" 
	d="
M130.995911,12.899504 
	C130.000183,17.240622 128.124008,19.949760 123.215805,18.723619 
	C123.215805,14.641418 123.215805,10.537115 123.215805,6.331712 
	C128.624268,5.002521 130.312592,8.115596 130.995911,12.899504 
z"/>
<path fill="#FFFFFF" opacity="1.000000" stroke="none" 
	d="
M173.030487,32.871567 
	C174.321121,31.664696 175.630890,30.829401 176.940659,29.994106 
	C177.175644,31.585329 178.179443,33.886639 177.494507,34.628201 
	C175.772095,36.493019 174.109314,35.175137 173.030487,32.871567 
z"/>
<path fill="#FFFFFF" opacity="1.000000" stroke="none" 
	d="
M45.648491,29.100090 
	C46.216919,31.046816 46.415520,33.165527 46.316147,35.678055 
	C45.771671,33.805275 45.525169,31.538673 45.648491,29.100090 
z"/>
<path fill="#FFFFFF" opacity="1.000000" stroke="none" 
	d="
M18.414555,34.726215 
	C18.378052,34.186211 18.644987,33.870686 18.911922,33.555161 
	C18.847281,34.020336 18.782637,34.485516 18.414555,34.726215 
z"/>
<path fill="#FFFFFF" opacity="1.000000" stroke="none" 
	d="
M82.351509,35.899910 
	C81.783089,33.953182 81.584480,31.834465 81.683853,29.321939 
	C82.228325,31.194727 82.474831,33.461327 82.351509,35.899910 
z"/>
<path fill="#FFFFFF" opacity="1.000000" stroke="none" 
	d="
M74.964722,30.031557 
	C75.965889,29.900782 77.455040,29.247326 77.929070,29.687378 
	C78.887245,30.576872 79.764717,32.064053 79.753838,33.296612 
	C79.747238,34.045231 78.017052,34.778633 77.061150,35.518867 
	C76.376137,33.932327 75.691124,32.345787 75.027466,30.352551 
	C75.048820,29.945850 74.993408,30.003637 74.964722,30.031557 
z"/>
</svg>